<svg width="18" height="19" viewBox="0 0 18 19" role="img" aria-label="" fill="none" xmlns="http://www.w3.org/2000/svg">
  <path fill-rule="evenodd" clip-rule="evenodd"
    d="M0.645874 3.01419C0.645874 2.646 0.944351 2.34753 1.31254 2.34753H3.91999C4.23774 2.34753 4.51133 2.57178 4.57369 2.88336L5.11879 5.60684H15.6535C15.8522 5.60684 16.0405 5.69545 16.1672 5.84854C16.2938 6.00163 16.3456 6.20322 16.3084 6.39839L15.2654 11.8675L15.2644 11.8725L15.2644 11.8725C15.1743 12.3261 14.9276 12.7335 14.5673 13.0235C14.209 13.312 13.761 13.466 13.3011 13.4588H6.97639C6.51652 13.466 6.06854 13.312 5.71016 13.0235C5.35008 12.7336 5.10338 12.3264 5.0132 11.8731L5.01308 11.8725L3.92432 6.43273C3.91985 6.41448 3.91612 6.39594 3.91319 6.37714L3.37353 3.68086H1.31254C0.944351 3.68086 0.645874 3.38238 0.645874 3.01419ZM6.5285 14.7335C5.80055 14.7335 5.21043 15.3236 5.21043 16.0516C5.21043 16.7795 5.80055 17.3696 6.5285 17.3696C7.25644 17.3696 7.84656 16.7795 7.84656 16.0516C7.84656 15.3236 7.25644 14.7335 6.5285 14.7335ZM13.6985 14.7335C12.9705 14.7335 12.3804 15.3236 12.3804 16.0516C12.3804 16.7795 12.9705 17.3696 13.6985 17.3696C14.4264 17.3696 15.0166 16.7795 15.0166 16.0516C15.0166 15.3236 14.4264 14.7335 13.6985 14.7335Z"
    fill="#2D3440" />
</svg>
